<svg width="42" height="42" viewBox="0 0 42 42" fill="none" xmlns="http://www.w3.org/2000/svg">
<path fill-rule="evenodd" clip-rule="evenodd" d="M3.5 8.75H12.95L15.75 5.25H26.25L29.05 8.75H38.5V36.75H3.5V33.25H35V12.25H27.3678L24.5682 8.75H17.43L14.6322 12.25H7V29.75H3.5V8.75ZM21 14.0068C25.8307 14.0068 29.7467 17.9228 29.7467 22.7535C29.7467 27.5841 25.8307 31.5001 21 31.5001C16.1694 31.5001 12.2534 27.5841 12.2534 22.7535C12.2534 17.9228 16.1694 14.0068 21 14.0068ZM15.7534 22.7535C15.7534 19.8558 18.1024 17.5068 21 17.5068C23.8977 17.5068 26.2467 19.8558 26.2467 22.7535C26.2467 25.6511 23.8977 28.0001 21 28.0001C18.1024 28.0001 15.7534 25.6511 15.7534 22.7535Z" fill="#C5C5C5"/>
<path d="M12.95 8.75V9.25H13.1903L13.3404 9.06235L12.95 8.75ZM3.5 8.75V8.25H3V8.75H3.5ZM15.75 5.25V4.75H15.5097L15.3596 4.93765L15.75 5.25ZM26.25 5.25L26.6404 4.93765L26.4903 4.75H26.25V5.25ZM29.05 8.75L28.6596 9.06235L28.8097 9.25H29.05V8.75ZM38.5 8.75H39V8.25H38.5V8.75ZM38.5 36.75V37.25H39V36.75H38.5ZM3.5 36.75H3V37.25H3.5V36.75ZM3.5 33.25V32.75H3V33.25H3.5ZM35 33.25V33.75H35.5V33.25H35ZM35 12.25H35.5V11.75H35V12.25ZM27.3678 12.25L26.9774 12.5623L27.1275 12.75H27.3678V12.25ZM24.5682 8.75L24.9587 8.43768L24.8086 8.25H24.5682V8.75ZM17.43 8.75V8.25H17.1896L17.0394 8.4378L17.43 8.75ZM14.6322 12.25V12.75H14.8726L15.0227 12.5622L14.6322 12.25ZM7 12.25V11.75H6.5V12.25H7ZM7 29.75V30.25H7.5V29.75H7ZM3.5 29.75H3V30.25H3.5V29.75ZM12.95 8.25H3.5V9.25H12.95V8.25ZM15.3596 4.93765L12.5596 8.43765L13.3404 9.06235L16.1404 5.56235L15.3596 4.93765ZM26.25 4.75H15.75V5.75H26.25V4.75ZM29.4404 8.43765L26.6404 4.93765L25.8596 5.56235L28.6596 9.06235L29.4404 8.43765ZM38.5 8.25H29.05V9.25H38.5V8.25ZM39 36.75V8.75H38V36.75H39ZM3.5 37.25H38.5V36.25H3.5V37.25ZM3 33.25V36.75H4V33.25H3ZM35 32.75H3.5V33.75H35V32.75ZM34.5 12.25V33.25H35.5V12.25H34.5ZM27.3678 12.75H35V11.75H27.3678V12.75ZM24.1778 9.06232L26.9774 12.5623L27.7583 11.9377L24.9587 8.43768L24.1778 9.06232ZM17.43 9.25H24.5682V8.25H17.43V9.25ZM15.0227 12.5622L17.8206 9.0622L17.0394 8.4378L14.2416 11.9378L15.0227 12.5622ZM7 12.75H14.6322V11.75H7V12.75ZM7.5 29.75V12.25H6.5V29.75H7.5ZM3.5 30.25H7V29.25H3.5V30.25ZM3 8.75V29.75H4V8.75H3ZM30.2467 22.7535C30.2467 17.6467 26.1068 13.5068 21 13.5068V14.5068C25.5545 14.5068 29.2467 18.199 29.2467 22.7535H30.2467ZM21 32.0001C26.1068 32.0001 30.2467 27.8602 30.2467 22.7535H29.2467C29.2467 27.3079 25.5545 31.0001 21 31.0001V32.0001ZM11.7534 22.7535C11.7534 27.8602 15.8933 32.0001 21 32.0001V31.0001C16.4456 31.0001 12.7534 27.3079 12.7534 22.7535H11.7534ZM21 13.5068C15.8933 13.5068 11.7534 17.6467 11.7534 22.7535H12.7534C12.7534 18.199 16.4456 14.5068 21 14.5068V13.5068ZM21 17.0068C17.8263 17.0068 15.2534 19.5797 15.2534 22.7535H16.2534C16.2534 20.132 18.3786 18.0068 21 18.0068V17.0068ZM26.7467 22.7535C26.7467 19.5797 24.1738 17.0068 21 17.0068V18.0068C23.6215 18.0068 25.7467 20.132 25.7467 22.7535H26.7467ZM21 28.5001C24.1738 28.5001 26.7467 25.9272 26.7467 22.7535H25.7467C25.7467 25.3749 23.6215 27.5001 21 27.5001V28.5001ZM15.2534 22.7535C15.2534 25.9272 17.8263 28.5001 21 28.5001V27.5001C18.3786 27.5001 16.2534 25.3749 16.2534 22.7535H15.2534Z" fill="white"/>
</svg>
