<svg width="9" height="15" viewBox="0 0 9 15" fill="none" xmlns="http://www.w3.org/2000/svg">
<path d="M8.02833 0.31398C8.22362 0.515082 8.33333 0.787799 8.33333 1.07216C8.33333 1.35652 8.22362 1.62923 8.02833 1.83033L2.51449 7.50647L8.02833 13.1826C8.21809 13.3849 8.32309 13.6558 8.32071 13.9369C8.31834 14.2181 8.20879 14.4871 8.01564 14.6859C7.8225 14.8847 7.56122 14.9975 7.28808 15C7.01495 15.0024 6.75181 14.8943 6.55534 14.699L0.305002 8.26465C0.10971 8.06355 0 7.79083 0 7.50647C0 7.22212 0.10971 6.9494 0.305002 6.7483L6.55534 0.31398C6.75069 0.112939 7.01561 0 7.29183 0C7.56806 0 7.83298 0.112939 8.02833 0.31398Z" fill="black"/>
</svg>
