<svg width="9" height="15" viewBox="0 0 9 15" fill="none" xmlns="http://www.w3.org/2000/svg">
<path d="M0.416127 14.686C0.220834 14.4849 0.111125 14.2122 0.111125 13.9278C0.111125 13.6435 0.220834 13.3708 0.416127 13.1697L5.92996 7.49353L0.416128 1.81739C0.22637 1.61513 0.121371 1.34424 0.123744 1.06307C0.126117 0.781892 0.235674 0.512923 0.428818 0.314095C0.621961 0.115266 0.883239 0.00248366 1.15638 3.94172e-05C1.42951 -0.00240387 1.69265 0.105687 1.88912 0.301031L8.13946 6.73535C8.33475 6.93645 8.44446 7.20917 8.44446 7.49353C8.44446 7.77788 8.33475 8.0506 8.13946 8.2517L1.88912 14.686C1.69377 14.8871 1.42885 15 1.15262 15C0.876397 15 0.611479 14.8871 0.416127 14.686Z" fill="black"/>
</svg>
