<svg width="95" height="89" viewBox="0 0 95 89" fill="none" xmlns="http://www.w3.org/2000/svg">
<path d="M15.6501 79.1168H25.9332C30.5287 79.1168 35.1834 79.5991 39.6561 80.5182C47.6414 82.1587 55.8577 82.3406 63.9078 81.0551C67.8572 80.4181 71.7338 79.4399 75.2464 77.7473C78.4133 76.2139 82.2944 74.0618 84.9016 71.6457C87.5042 69.2342 90.216 65.2893 92.1362 62.2044C93.7924 59.5563 92.9916 56.3121 90.3798 54.3419C88.9122 53.2744 87.1441 52.6993 85.3293 52.6993C83.5145 52.6993 81.7464 53.2744 80.2788 54.3419L72.0569 60.5527C68.8719 62.9642 65.3911 65.1801 61.246 65.8398C60.7455 65.9172 60.2222 65.99 59.6762 66.0537M59.6762 66.0537C59.5095 66.073 59.3427 66.0912 59.1757 66.1083M59.6762 66.0537C60.4045 65.8567 61.0723 65.4814 61.6191 64.9617C62.3047 64.3685 62.8646 63.6441 63.2657 62.831C63.6668 62.018 63.901 61.1328 63.9544 60.2278C64.0079 59.3227 63.8795 58.4162 63.5768 57.5616C63.2742 56.707 62.8035 55.9216 62.1924 55.2519C61.5995 54.5937 60.9089 54.0305 60.1449 53.5821C47.4185 45.9881 27.6122 51.7712 15.6501 60.257M59.6762 66.0537C59.5118 66.0895 59.344 66.1078 59.1757 66.1083M59.1757 66.1083C56.4317 66.3841 53.6672 66.3902 50.922 66.1265" stroke="#0A5226" stroke-width="4" stroke-linecap="round"/>
<path d="M15.6501 56.8761C15.6501 53.1067 12.5944 50.051 8.82505 50.051C5.05568 50.051 2 53.1067 2 56.8761V79.6262C2 83.3956 5.05568 86.4513 8.82505 86.4513C12.5944 86.4513 15.6501 83.3956 15.6501 79.6262V56.8761Z" fill="#4DA36F" stroke="#0A5226" stroke-width="4"/>
<path d="M82.754 23.9185C82.6266 21.7697 81.6763 19.7749 80.1118 18.372C78.5472 16.9691 76.4963 16.2727 74.4092 16.4359C73.672 16.4632 72.9417 16.6092 72.2447 16.8687C72.6169 16.2066 72.9029 15.4978 73.0952 14.761C73.6287 12.6571 73.3329 10.4347 72.2731 8.58257C71.2132 6.73049 69.4759 5.40049 67.4436 4.88515C65.4112 4.36982 63.2501 4.71137 61.4358 5.83466C59.6214 6.95795 58.3025 8.77097 57.769 10.8749C57.587 11.6143 57.5007 12.3737 57.5125 13.1332C57.0279 12.5626 56.458 12.0758 55.8235 11.6905C54.9551 11.1287 53.9851 10.7506 52.9687 10.5777C51.9524 10.4048 50.9096 10.4405 49.9001 10.6829C48.8905 10.9252 47.9338 11.3694 47.0847 11.9901C46.2355 12.6109 45.5106 13.3959 44.9512 14.3005C44.3918 15.2051 44.0089 16.2114 43.8244 17.2622C43.6399 18.3129 43.6574 19.3874 43.8759 20.4243C44.0944 21.4612 44.5096 22.4402 45.0978 23.3054C45.686 24.1706 46.4357 24.9051 47.3041 25.467C47.9459 25.856 48.6326 26.162 49.3491 26.3782C48.679 26.6974 48.0469 27.0975 47.4664 27.5697C46.6637 28.2532 45.9981 29.092 45.5081 30.0374C45.0182 30.9828 44.7136 32.016 44.6122 33.0771C44.5108 34.1382 44.6145 35.206 44.9173 36.2186C45.2201 37.2312 45.716 38.1684 46.3761 38.9758C47.7068 40.6207 49.622 41.6472 51.7058 41.8324C53.7895 42.0177 55.8736 41.3467 57.5054 39.9652C58.0761 39.4683 58.5745 38.889 58.9846 38.2459C59.0474 39.0109 59.2196 39.7602 59.4955 40.4698C60.2719 42.4619 61.7844 44.0449 63.7047 44.8749C65.625 45.7049 67.7979 45.715 69.7516 44.9029C70.7167 44.5076 71.5992 43.9199 72.3479 43.1739C73.0966 42.428 73.6966 41.5386 74.113 40.5574C74.5294 39.5762 74.754 38.5227 74.7738 37.458C74.7935 36.3934 74.6079 35.3388 74.2279 34.3554C73.9425 33.6636 73.5774 33.0107 73.1404 32.4107C73.864 32.5571 74.6034 32.6127 75.3428 32.5765C76.3741 32.5038 77.3846 32.2217 78.3162 31.7465C79.2477 31.2714 80.082 30.6124 80.7708 29.8077C81.4596 29.003 81.9895 28.0684 82.3299 27.0577C82.6702 26.047 82.8144 24.9801 82.754 23.9185Z" fill="#E53D7A"/>
</svg>
