<svg width="27" height="27" viewBox="0 0 27 27" fill="none" xmlns="http://www.w3.org/2000/svg">
<path d="M23.0392 3.5664C22.054 2.57954 20.7361 2.02095 19.3749 2.01326C18.0136 2.00556 16.7202 2.54939 15.7786 3.52536C15.433 3.85537 15.1417 4.24003 14.9154 4.66536C14.8113 4.18443 14.6453 3.71794 14.4219 3.27815C13.7764 2.02906 12.678 1.07885 11.3683 0.636551C10.0586 0.194255 8.64497 0.296103 7.43834 0.919692C6.23172 1.54328 5.33095 2.63753 4.93419 3.96171C4.53744 5.28589 4.6772 6.73154 5.32273 7.98063C5.55227 8.41725 5.83681 8.82245 6.16889 9.18558C5.68881 9.11721 5.20331 9.12615 4.73022 9.21205C4.06784 9.31289 3.43511 9.54645 2.86815 9.8994C2.30118 10.2524 1.81109 10.7178 1.42586 11.2691C1.04062 11.8205 0.767786 12.4469 0.622926 13.1127C0.478066 13.7785 0.46402 14.4706 0.581589 15.1494C0.699159 15.8283 0.946043 16.4807 1.30814 17.0693C1.67024 17.6579 2.14047 18.1712 2.69197 18.5799C3.24348 18.9887 3.86546 19.2848 4.52241 19.4514C5.17936 19.6181 5.8584 19.6519 6.52078 19.5511C6.99905 19.4639 7.46344 19.3171 7.90364 19.114C7.716 19.5567 7.58152 20.0222 7.50307 20.5006C7.4077 21.1769 7.4455 21.8695 7.61427 22.5383C7.78305 23.2072 8.07945 23.8389 8.48628 24.3968C8.8931 24.9547 9.40224 25.4278 9.98416 25.7885C10.5661 26.1492 11.2092 26.3904 11.8762 26.4981C13.2281 26.7236 14.5976 26.3981 15.6872 25.5925C16.7769 24.7868 17.4988 23.5659 17.6961 22.195C17.7592 21.7089 17.7519 21.214 17.6743 20.726C18.0335 21.0698 18.439 21.359 18.8776 21.5844C20.1101 22.2164 21.5235 22.3338 22.811 21.9109C24.0986 21.488 25.1562 20.5591 25.7542 19.3259C26.0522 18.7195 26.2274 18.0554 26.2698 17.3721C26.3121 16.6887 26.2207 15.9998 26.0009 15.3452C25.7811 14.6906 25.4373 14.0834 24.9893 13.5589C24.5413 13.0343 23.9982 12.6029 23.3914 12.2895C22.9558 12.0768 22.4982 11.9172 22.0286 11.8142C22.4422 11.5742 22.8245 11.2834 23.1674 10.9481C23.636 10.4697 24.0046 9.89869 24.252 9.26803C24.4994 8.63736 24.6206 7.95947 24.6087 7.27338C24.5968 6.58728 24.452 5.90654 24.1826 5.27034C23.9133 4.63414 23.5247 4.05504 23.0392 3.5664Z" fill="#E53D7A"/>
</svg>
