<svg width="76" height="74" viewBox="0 0 76 74" fill="none" xmlns="http://www.w3.org/2000/svg">
<g filter="url(#filter0_d_236_84)">
<path d="M4 18.4425C4 14.4743 7.77886 12.0991 11.2857 12.0991H64.7143C68.2211 12.0991 72 14.4743 72 18.4425V25.3203C72 28.3706 69.7657 30.4785 67.1429 31.2945V58.242C67.1429 59.1988 66.9544 60.1462 66.5883 61.0301C66.2221 61.914 65.6855 62.7172 65.0089 63.3938C64.3324 64.0703 63.5292 64.607 62.6453 64.9731C61.7613 65.3392 60.8139 65.5277 59.8571 65.5277H16.1429C15.1861 65.5277 14.2387 65.3392 13.3547 64.9731C12.4708 64.607 11.6676 64.0703 10.9911 63.3938C10.3145 62.7172 9.77788 61.914 9.41173 61.0301C9.04559 60.1462 8.85714 59.1988 8.85714 58.242V31.2897C6.23429 30.4785 4 28.3706 4 25.3203V18.4425Z" fill="#4DA36F"/>
<path fill-rule="evenodd" clip-rule="evenodd" d="M21.5877 1.69502C21.8439 1.29028 22.1773 0.940009 22.5689 0.664264C22.9605 0.388519 23.4027 0.19271 23.8701 0.0880437C24.3374 -0.0166224 24.8209 -0.0280911 25.2927 0.0542941C25.7645 0.136679 26.2155 0.311301 26.6197 0.568166L38 7.78588L49.3852 0.568166C50.2012 0.0509555 51.1894 -0.120888 52.1321 0.0904386C52.5989 0.195077 53.0406 0.390636 53.4318 0.665951C53.823 0.941266 54.1562 1.29095 54.4123 1.69502C54.6684 2.0991 54.8424 2.54966 54.9244 3.02099C55.0064 3.49231 54.9947 3.97516 54.89 4.44197C54.7854 4.90879 54.5899 5.35042 54.3145 5.74166C54.0392 6.13289 53.6895 6.46607 53.2855 6.72217L41.0357 14.4887V31.2945H67.1429V37.3659H41.0357V65.5276H34.9643V37.3707H8.85718V31.2993H34.9643V14.4887L22.7146 6.71731C21.9012 6.20019 21.3259 5.3818 21.1147 4.44137C20.9035 3.50095 21.0736 2.51514 21.5877 1.69988V1.69502Z" fill="#0A5226"/>
</g>
<defs>
<filter id="filter0_d_236_84" x="0" y="0" width="76" height="73.5276" filterUnits="userSpaceOnUse" color-interpolation-filters="sRGB">
<feFlood flood-opacity="0" result="BackgroundImageFix"/>
<feColorMatrix in="SourceAlpha" type="matrix" values="0 0 0 0 0 0 0 0 0 0 0 0 0 0 0 0 0 0 127 0" result="hardAlpha"/>
<feOffset dy="4"/>
<feGaussianBlur stdDeviation="2"/>
<feComposite in2="hardAlpha" operator="out"/>
<feColorMatrix type="matrix" values="0 0 0 0 0 0 0 0 0 0 0 0 0 0 0 0 0 0 0.25 0"/>
<feBlend mode="normal" in2="BackgroundImageFix" result="effect1_dropShadow_236_84"/>
<feBlend mode="normal" in="SourceGraphic" in2="effect1_dropShadow_236_84" result="shape"/>
</filter>
</defs>
</svg>
