<svg width="50" height="50" viewBox="0 0 50 50" fill="none" xmlns="http://www.w3.org/2000/svg">
<g clip-path="url(#clip0_273_54)">
<path fill-rule="evenodd" clip-rule="evenodd" d="M25 0C18.3696 0 12.0107 2.63392 7.32233 7.32233C2.63392 12.0107 0 18.3696 0 25C0 31.6304 2.63392 37.9893 7.32233 42.6777C12.0107 47.3661 18.3696 50 25 50C31.6304 50 37.9893 47.3661 42.6777 42.6777C47.3661 37.9893 50 31.6304 50 25C50 18.3696 47.3661 12.0107 42.6777 7.32233C37.9893 2.63392 31.6304 0 25 0Z" fill="#4DA36F"/>
<path fill-rule="evenodd" clip-rule="evenodd" d="M16.3572 21.3429C15.4066 21.3114 14.5055 20.9112 13.8449 20.2269C13.1842 19.5427 12.8158 18.6282 12.8177 17.6771C12.8196 16.7259 13.1915 15.8129 13.8548 15.1312C14.5181 14.4496 15.4207 14.0528 16.3714 14.0251H16.3893C17.3399 14.057 18.2408 14.4577 18.9011 15.1422C19.5614 15.8268 19.9294 16.7415 19.9271 17.6926C19.9248 18.6438 19.5523 19.5567 18.8887 20.238C18.225 20.9193 17.3222 21.3156 16.3714 21.3429H16.3607H16.3572ZM12.8322 28.4751C12.5954 28.4751 12.3683 28.5691 12.2008 28.7366C12.0334 28.904 11.9393 29.1311 11.9393 29.3679C11.9393 31.3393 12.9036 34.1429 14.9786 36.4501C17.0857 38.7929 20.3536 40.6393 24.9429 40.6393C29.5322 40.6393 32.8 38.7929 34.9072 36.4501C36.9822 34.1429 37.9429 31.3429 37.9429 29.3679C37.9429 29.1311 37.8488 28.904 37.6814 28.7366C37.5139 28.5691 37.2868 28.4751 37.05 28.4751H12.8357H12.8322ZM33.6179 21.3429C32.6475 21.3415 31.7173 20.9548 31.0319 20.2679C30.3464 19.5809 29.9618 18.6499 29.9625 17.6795C29.9632 16.7091 30.3492 15.7787 31.0357 15.0927C31.7221 14.4068 32.6528 14.0215 33.6232 14.0215C34.5936 14.0215 35.5244 14.4068 36.2108 15.0927C36.8972 15.7787 37.2832 16.7091 37.2839 17.6795C37.2847 18.6499 36.9 19.5809 36.2146 20.2679C35.5291 20.9548 34.599 21.3415 33.6286 21.3429H33.6179Z" fill="#0A5226"/>
</g>
<defs>
<clipPath id="clip0_273_54">
<rect width="50" height="50" fill="white"/>
</clipPath>
</defs>
</svg>
