<svg width="50" height="50" viewBox="0 0 50 50" fill="none" xmlns="http://www.w3.org/2000/svg">
<path fill-rule="evenodd" clip-rule="evenodd" d="M25 0C31.6304 0 37.9893 2.63392 42.6777 7.32233C47.3661 12.0107 50 18.3696 50 25C50 31.6304 47.3661 37.9893 42.6777 42.6777C37.9893 47.3661 31.6304 50 25 50C18.3696 50 12.0107 47.3661 7.32233 42.6777C2.63392 37.9893 0 31.6304 0 25C0 18.3696 2.63392 12.0107 7.32233 7.32233C12.0107 2.63392 18.3696 0 25 0Z" fill="#D6E9DD"/>
<path fill-rule="evenodd" clip-rule="evenodd" d="M16.125 10.9929C17.3571 10.9929 18.3571 11.9929 18.3571 13.2251V14.9822H20.1071C20.6991 14.9822 21.2669 15.2174 21.6855 15.636C22.1041 16.0546 22.3393 16.6223 22.3393 17.2143C22.3393 17.8064 22.1041 18.3741 21.6855 18.7927C21.2669 19.2113 20.6991 19.4465 20.1071 19.4465H18.3571V21.1965C18.3571 21.7885 18.122 22.3562 17.7034 22.7749C17.2847 23.1935 16.717 23.4286 16.125 23.4286C15.533 23.4286 14.9652 23.1935 14.5466 22.7749C14.128 22.3562 13.8929 21.7885 13.8929 21.1965V19.4465H12.1357C11.8426 19.4465 11.5523 19.3888 11.2815 19.2766C11.0107 19.1644 10.7646 19 10.5573 18.7927C10.3501 18.5854 10.1857 18.3394 10.0735 18.0686C9.9613 17.7977 9.90356 17.5075 9.90356 17.2143C9.90356 16.9212 9.9613 16.631 10.0735 16.3601C10.1857 16.0893 10.3501 15.8433 10.5573 15.636C10.7646 15.4287 11.0107 15.2643 11.2815 15.1521C11.5523 15.0399 11.8426 14.9822 12.1357 14.9822H13.8929V13.2251C13.8929 11.9929 14.8928 10.9929 16.125 10.9929ZM33.875 10.9929C33.5816 10.9929 33.291 11.0508 33.02 11.1632C32.7489 11.2756 32.5027 11.4403 32.2954 11.648C32.088 11.8556 31.9237 12.1021 31.8117 12.3733C31.6998 12.6446 31.6424 12.9352 31.6428 13.2286V14.9822H29.8929C29.3008 14.9822 28.7331 15.2174 28.3145 15.636C27.8959 16.0546 27.6607 16.6223 27.6607 17.2143C27.6607 17.8064 27.8959 18.3741 28.3145 18.7927C28.7331 19.2113 29.3008 19.4465 29.8929 19.4465H31.6428V21.1965C31.6428 21.7885 31.878 22.3562 32.2966 22.7749C32.7152 23.1935 33.283 23.4286 33.875 23.4286C34.467 23.4286 35.0347 23.1935 35.4534 22.7749C35.872 22.3562 36.1071 21.7885 36.1071 21.1965V19.4465H37.8643C38.1574 19.4465 38.4477 19.3888 38.7185 19.2766C38.9893 19.1644 39.2354 19 39.4426 18.7927C39.6499 18.5854 39.8143 18.3394 39.9265 18.0686C40.0387 17.7977 40.0964 17.5075 40.0964 17.2143C40.0964 16.9212 40.0387 16.631 39.9265 16.3601C39.8143 16.0893 39.6499 15.8433 39.4426 15.636C39.2354 15.4287 38.9893 15.2643 38.7185 15.1521C38.4477 15.0399 38.1574 14.9822 37.8643 14.9822H36.1071V13.2286C36.1071 12.6366 35.872 12.0689 35.4534 11.6503C35.0347 11.2317 34.467 10.9965 33.875 10.9965V10.9929ZM37.1107 27.7429C37.5843 27.7429 38.0385 27.9311 38.3734 28.2659C38.7083 28.6008 38.8964 29.055 38.8964 29.5286C38.8964 31.7429 37.8357 34.7536 35.625 37.2072C33.3571 39.7322 29.8536 41.6929 25 41.6929C20.1428 41.6929 16.6429 39.7286 14.375 37.2108C12.1643 34.7536 11.1036 31.7465 11.1036 29.5286C11.1036 29.055 11.2917 28.6008 11.6266 28.2659C11.9615 27.9311 12.4157 27.7429 12.8893 27.7429H37.1107Z" fill="#B5DCC4"/>
</svg>
