<svg width="58" height="58" viewBox="0 0 58 58" fill="none" xmlns="http://www.w3.org/2000/svg">
<g clip-path="url(#clip0_236_87)">
<path fill-rule="evenodd" clip-rule="evenodd" d="M29 0C36.6913 0 44.0675 3.05535 49.5061 8.4939C54.9447 13.9325 58 21.3087 58 29C58 36.6913 54.9447 44.0675 49.5061 49.5061C44.0675 54.9447 36.6913 58 29 58C21.3087 58 13.9325 54.9447 8.4939 49.5061C3.05535 44.0675 0 36.6913 0 29C0 21.3087 3.05535 13.9325 8.4939 8.4939C13.9325 3.05535 21.3087 0 29 0Z" fill="#4DA36F"/>
<path fill-rule="evenodd" clip-rule="evenodd" d="M18.9909 16.2689C18.4223 16.2512 17.856 16.3478 17.3256 16.5531C16.7951 16.7584 16.3113 17.0682 15.9028 17.4641C15.4944 17.8599 15.1696 18.3339 14.9479 18.8577C14.7261 19.3814 14.6118 19.9445 14.6118 20.5133C14.6118 21.0821 14.7261 21.6451 14.9479 22.1689C15.1696 22.6927 15.4944 23.1666 15.9028 23.5625C16.3113 23.9584 16.7951 24.2681 17.3256 24.4735C17.856 24.6788 18.4223 24.7754 18.9909 24.7576H19.0033C20.106 24.7216 21.1514 24.2578 21.9181 23.4645C22.6848 22.6711 23.1126 21.6105 23.111 20.5073C23.1094 19.404 22.6785 18.3446 21.9094 17.5535C21.1404 16.7624 20.0937 16.3017 18.9909 16.2689ZM34.7627 20.5153C34.7627 19.6768 35.0112 18.8571 35.4768 18.1598C35.9424 17.4624 36.6042 16.9186 37.3787 16.5972C38.1532 16.2757 39.0055 16.191 39.8281 16.3537C40.6507 16.5164 41.4066 16.9192 42.0004 17.5112C42.5942 18.1033 42.9992 18.858 43.1643 19.6801C43.3293 20.5022 43.2471 21.3548 42.9279 22.1302C42.6087 22.9056 42.0669 23.569 41.3709 24.0366C40.6749 24.5043 39.856 24.7552 39.0174 24.7576H39.0092C38.4515 24.7582 37.8992 24.6489 37.3838 24.436C36.8684 24.2231 36.4 23.9107 36.0053 23.5168C35.6106 23.1229 35.2973 22.6551 35.0834 22.1401C34.8695 21.6251 34.7591 21.073 34.7586 20.5153H34.7627ZM17.3586 32.1485C17.1778 31.4879 16.7427 30.9258 16.1484 30.5853C15.5542 30.2448 14.8492 30.1536 14.1879 30.3317C13.5266 30.5097 12.9627 30.9426 12.6198 31.5354C12.2769 32.1283 12.1828 32.8329 12.3582 33.4949C13.3465 37.1545 15.5131 40.3866 18.5228 42.6912C21.5324 44.9959 25.2176 46.2448 29.0083 46.2448C32.799 46.2448 36.4842 44.9959 39.4938 42.6912C42.5035 40.3866 44.6701 37.1545 45.6584 33.4949C45.8338 32.8329 45.7397 32.1283 45.3968 31.5354C45.0539 30.9426 44.49 30.5097 43.8287 30.3317C43.1674 30.1536 42.4624 30.2448 41.8682 30.5853C41.2739 30.9258 40.8388 31.4879 40.658 32.1485C39.9658 34.7084 38.4496 36.969 36.3439 38.581C34.2382 40.1929 31.6602 41.0664 29.0083 41.0664C26.3564 41.0664 23.7784 40.1929 21.6727 38.581C19.567 36.969 18.0508 34.7084 17.3586 32.1485Z" fill="#0A5226"/>
</g>
<defs>
<clipPath id="clip0_236_87">
<rect width="58" height="58" fill="white"/>
</clipPath>
</defs>
</svg>
