<svg width="22" height="18" viewBox="0 0 22 18" fill="none" xmlns="http://www.w3.org/2000/svg">
<path d="M5.7555 0.502635L5.62534 0.500076C4.14934 0.508116 2.90012 1.18095 2.00424 2.19611L5.7555 0.502635ZM5.7555 0.502635C7.21211 0.531268 8.88815 1.20459 10.6644 2.83938L11.0029 3.15083M5.7555 0.502635L11.0029 3.15083M11.0029 3.15083L11.3414 2.83955M11.0029 3.15083L11.3414 2.83955M11.3414 2.83955C13.1144 1.2095 14.7887 0.537753 16.2436 0.510557C17.7726 0.482003 19.0687 1.16421 19.9923 2.20903C21.8408 4.30175 22.1819 7.83758 19.9243 10.0284L19.9243 10.0285M11.3414 2.83955L19.9243 10.0285M19.9243 10.0285L19.9242 10.0285M19.9243 10.0285L19.9242 10.0285M19.9242 10.0285L19.9227 10.03M19.9242 10.0285L19.9227 10.03M19.9227 10.03L13.0032 16.6877C13.0032 16.6877 13.0031 16.6878 13.0031 16.6878C11.8766 17.7708 10.1293 17.7707 9.00288 16.6877L2.08527 10.0303C2.08499 10.03 2.08472 10.0297 2.08444 10.0294C-0.181614 7.82655 0.156663 4.29084 2.00417 2.1962L19.9227 10.03Z" stroke="#E53D7A"/>
</svg>
