 <svg width="66" height="66" viewBox="0 0 66 66" fill="none" xmlns="http://www.w3.org/2000/svg">
<path fill-rule="evenodd" clip-rule="evenodd" d="M2.34982 39.229C1.72459 39.229 1.12497 39.4774 0.682872 39.9195C0.240771 40.3616 -0.00759888 40.9612 -0.00759888 41.5864L-0.00759888 58.8898C-0.00759888 59.8186 0.17533 60.7382 0.530744 61.5963C0.886157 62.4543 1.40709 63.234 2.06381 63.8907C2.72053 64.5474 3.50017 65.0683 4.35821 65.4237C5.21626 65.7792 6.1359 65.9621 7.06464 65.9621H58.9278C60.8034 65.9621 62.6023 65.217 63.9286 63.8907C65.2549 62.5644 66 60.7655 66 58.8898V41.5864C66 40.9612 65.7516 40.3616 65.3095 39.9195C64.8674 39.4774 64.2678 39.229 63.6426 39.229H49.6254C47.7497 39.229 45.9509 39.9741 44.6246 41.3004C43.2983 42.6267 42.5532 44.4256 42.5532 46.3012C42.5532 50.8935 37.9515 54.4673 32.9821 54.4343C28.1541 54.4013 23.6938 50.8133 23.6938 46.3012C23.6938 44.4256 22.9487 42.6267 21.6224 41.3004C20.2961 39.9741 18.4973 39.229 16.6216 39.229H2.34982Z" fill="#4DA36F"/>
<path fill-rule="evenodd" clip-rule="evenodd" d="M44.7832 18.8609C45.4831 18.8612 46.1674 18.6538 46.7493 18.265C47.3313 17.8762 47.7848 17.3234 48.0523 16.6767C48.3199 16.03 48.3896 15.3184 48.2524 14.632C48.1153 13.9457 47.7776 13.3155 47.2821 12.8212L35.495 1.03415C34.832 0.371951 33.9332 0 32.9962 0C32.0591 0 31.1603 0.371951 30.4973 1.03415L18.7102 12.8212C18.2163 13.3157 17.88 13.9455 17.7439 14.6311C17.6077 15.3166 17.6777 16.0271 17.9451 16.6729C18.2125 17.3186 18.6652 17.8707 19.2462 18.2593C19.8271 18.6479 20.5102 18.8556 21.2091 18.8562H29.46V31.822C29.46 32.7598 29.8326 33.6592 30.4958 34.3224C31.1589 34.9855 32.0583 35.3581 32.9962 35.3581C33.934 35.3581 34.8334 34.9855 35.4966 34.3224C36.1597 33.6592 36.5323 32.7598 36.5323 31.822V18.8562H44.7832V18.8609Z" fill="#0A5226"/>
</svg>
