<svg width="240" height="111" viewBox="0 0 240 111" fill="none" xmlns="http://www.w3.org/2000/svg">
<path d="M57.6956 29.57C54.989 31.4833 53.6356 34.33 53.6356 38.11C53.6356 40.49 54.4756 42.73 56.1556 44.83C57.8823 46.93 60.7756 47.98 64.8356 47.98C68.8956 47.98 72.7456 46.6033 76.3856 43.85C80.0256 41.0967 82.779 38.0867 84.6456 34.82L87.0256 39.09C81.0056 49.31 72.629 54.42 61.8956 54.42C56.5756 54.42 52.0723 52.9967 48.3856 50.15C44.699 47.2567 42.8556 43.8733 42.8556 40C42.8556 33.2333 45.8656 28.3333 51.8856 25.3C49.879 22.8267 48.8756 19.9333 48.8756 16.62C48.8756 12.28 50.7423 8.54666 54.4756 5.42C58.2556 2.29333 62.619 0.729997 67.5656 0.729997C72.5123 0.729997 76.3156 1.99 78.9756 4.51C81.6823 7.03 83.0356 10.3433 83.0356 14.45H76.3856C76.4323 11.93 75.7556 10.04 74.3556 8.78C73.0023 7.47333 71.089 6.82 68.6156 6.82C66.189 6.82 63.9956 7.70666 62.0356 9.48C59.8423 11.3933 58.7456 13.6333 58.7456 16.2C58.7456 18.7667 59.4456 20.9833 60.8456 22.85C65.5123 22.29 69.059 22.5933 71.4856 23.76C72.979 24.46 73.7256 25.58 73.7256 27.12C73.7256 28.6133 72.8623 29.6633 71.1356 30.27C69.4556 30.8767 67.4256 31.18 65.0456 31.18C62.6656 31.18 60.2156 30.6433 57.6956 29.57ZM105.607 42.87C105.607 46.23 107.03 47.91 109.877 47.91C109.97 47.91 110.04 47.91 110.087 47.91C111.393 47.91 112.56 47.21 113.587 45.81C114.613 44.41 115.383 42.66 115.897 40.56C117.017 36.2667 117.577 32.37 117.577 28.87H116.947C114.987 28.87 113.47 28.4267 112.397 27.54C111.277 26.5133 110.717 25.2767 110.717 23.83C110.717 22.3833 111.16 21.2167 112.047 20.33C113.12 19.35 114.45 18.86 116.037 18.86C119.49 18.86 121.823 20.6333 123.037 24.18C126.303 23.3867 129.757 22.29 133.397 20.89V24.88C129.943 26.1867 126.723 27.19 123.737 27.89C123.783 28.2633 123.807 28.8 123.807 29.5C123.62 39.16 121.357 46.16 117.017 50.5C114.45 53.0667 111.113 54.35 107.007 54.35C102.947 54.35 99.9135 52.6233 97.9068 49.17C95.6201 52.67 92.1201 54.42 87.4068 54.42C84.6068 54.42 82.2968 53.44 80.4768 51.48C78.7035 49.4733 77.8168 47.1167 77.8168 44.41C77.8168 43.9433 77.8401 43.3833 77.8868 42.73C78.8668 34.61 79.6835 27.4233 80.3368 21.17C82.0168 20.61 83.4868 20.33 84.7468 20.33C88.0601 20.33 89.7168 21.4733 89.7168 23.76C89.7168 24.6467 89.3668 27.7033 88.6668 32.93C87.7801 39.51 87.3368 43.22 87.3368 44.06C87.3368 44.8533 87.6401 45.6467 88.2468 46.44C88.9001 47.2333 89.8101 47.63 90.9768 47.63C92.1901 47.63 93.2635 47.0933 94.1968 46.02C95.1301 44.9467 95.8068 43.64 96.2268 42.1L98.6768 21.17C100.17 20.61 101.757 20.33 103.437 20.33C106.47 20.33 107.987 21.4733 107.987 23.76C107.987 24.6 107.66 27.33 107.007 31.95C106.073 38.4833 105.607 42.1233 105.607 42.87ZM114.707 23.83C114.707 24.6233 115.383 25.02 116.737 25.02C116.877 25.02 117.017 25.02 117.157 25.02C116.83 23.76 116.34 23.13 115.687 23.13C115.033 23.13 114.707 23.3633 114.707 23.83ZM146.749 46.02L148.429 30.55C148.429 29.29 148.103 28.24 147.449 27.4C146.796 26.56 145.746 26.14 144.299 26.14C142.853 26.14 141.616 26.7233 140.589 27.89C139.609 29.01 138.886 30.5033 138.419 32.37C138.093 35.03 137.603 38.9267 136.949 44.06C136.296 49.1467 135.876 52.46 135.689 54H126.379C129.739 25.3933 131.769 7.82333 132.469 1.29C133.449 0.916664 134.779 0.729997 136.459 0.729997C140.099 0.729997 141.919 1.80333 141.919 3.95V4.37C141.126 11.6967 140.286 18.1367 139.399 23.69C141.873 21.45 144.673 20.33 147.799 20.33C150.926 20.33 153.399 21.1233 155.219 22.71C157.039 24.2967 157.949 26.3033 157.949 28.73C157.949 29.3833 157.809 30.5967 157.529 32.37C156.456 39.37 155.919 43.4767 155.919 44.69C155.919 46.8833 156.643 47.98 158.089 47.98C159.303 47.98 160.586 47.1867 161.939 45.6C163.339 43.9667 164.459 41.47 165.299 38.11C166.886 39.79 167.843 41.12 168.169 42.1C165.743 50.22 161.449 54.28 155.289 54.28C152.396 54.28 150.249 53.3933 148.849 51.62C147.449 49.8467 146.749 47.98 146.749 46.02ZM193.584 54.35C189.291 54.35 186.444 52.8567 185.044 49.87C182.618 52.9033 179.491 54.42 175.664 54.42C171.884 54.42 168.688 53.1367 166.074 50.57C163.508 48.0033 162.224 44.62 162.224 40.42C162.224 34.3067 164.021 29.43 167.614 25.79C171.208 22.15 175.758 20.33 181.264 20.33C181.404 20.33 181.544 20.33 181.684 20.33C184.018 20.33 186.164 20.7267 188.124 21.52C189.384 20.7267 190.901 20.33 192.674 20.33C194.494 20.33 195.801 20.5633 196.594 21.03C196.174 24.4833 195.731 27.89 195.264 31.25C194.798 34.5633 194.471 36.92 194.284 38.32C193.864 41.4933 193.654 43.78 193.654 45.18C193.654 47.0467 194.401 47.98 195.894 47.98C197.061 47.98 198.298 47.21 199.604 45.67C200.911 44.0833 202.054 41.61 203.034 38.25C204.388 39.4633 205.321 40.8167 205.834 42.31C204.481 46.7433 202.661 49.87 200.374 51.69C198.088 53.4633 195.824 54.35 193.584 54.35ZM182.314 25.79C179.328 25.79 176.948 26.9333 175.174 29.22C173.448 31.46 172.421 34.82 172.094 39.3C172.048 39.72 172.024 40.1167 172.024 40.49C172.024 42.7767 172.561 44.5967 173.634 45.95C174.754 47.3033 176.178 47.98 177.904 47.98C180.844 47.98 183.061 45.9033 184.554 41.75L186.234 26.63C184.881 26.07 183.574 25.79 182.314 25.79ZM58.4629 51.22C59.4429 50.8467 60.8196 50.66 62.5929 50.66C64.3662 50.66 65.9529 50.7767 67.3529 51.01C65.9062 61.7433 64.7629 71.4733 63.9229 80.2C63.1296 88.88 62.6862 93.4533 62.5929 93.92C62.5462 94.3867 62.5229 94.8067 62.5229 95.18C62.5696 96.3933 63.1529 97 64.2729 97C67.0729 97 70.9696 93.78 75.9629 87.34C76.8496 89.8133 77.3629 91.47 77.5029 92.31C75.2629 95.8567 72.5562 98.7733 69.3829 101.06C66.2562 103.3 63.2929 104.42 60.4929 104.42C57.6929 104.42 55.7562 103.697 54.6829 102.25C53.6096 100.803 53.0729 99.1933 53.0729 97.42C53.0729 97 53.1196 96.1833 53.2129 94.97C53.3529 93.7567 54.2862 86.1967 56.0129 72.29L44.5329 98.82H38.5829L35.1529 72.71L30.2529 94.41C29.4596 97.8633 28.1529 100.407 26.3329 102.04C24.5596 103.673 22.5996 104.49 20.4529 104.49C18.3062 104.49 16.5562 103.86 15.2029 102.6C13.7562 101.247 13.0329 99.3333 13.0329 96.86C13.0329 91.9133 16.8596 87.69 24.5129 84.19C28.6662 64.2633 30.9062 53.2267 31.2329 51.08C32.3529 50.8 33.8462 50.66 35.7129 50.66C37.6262 50.66 38.9329 50.7067 39.6329 50.8H40.1229L44.4629 83.35L58.4629 51.57V51.22ZM18.0029 95.67C18.0029 97.1633 18.5862 97.91 19.7529 97.91C20.5462 97.91 21.1996 97.28 21.7129 96.02C22.3662 94.48 22.9029 92.45 23.3229 89.93C19.7762 91.9367 18.0029 93.85 18.0029 95.67ZM102.393 104.35C98.0995 104.35 95.2528 102.857 93.8528 99.87C91.4262 102.903 88.2995 104.42 84.4728 104.42C80.6928 104.42 77.4962 103.137 74.8828 100.57C72.3162 98.0033 71.0328 94.62 71.0328 90.42C71.0328 84.3067 72.8295 79.43 76.4228 75.79C80.0162 72.15 84.5662 70.33 90.0728 70.33C90.2128 70.33 90.3528 70.33 90.4928 70.33C92.8262 70.33 94.9728 70.7267 96.9328 71.52C98.1928 70.7267 99.7095 70.33 101.483 70.33C103.303 70.33 104.609 70.5633 105.403 71.03C104.983 74.4833 104.539 77.89 104.073 81.25C103.606 84.5633 103.279 86.92 103.093 88.32C102.673 91.4933 102.463 93.78 102.463 95.18C102.463 97.0467 103.209 97.98 104.703 97.98C105.869 97.98 107.106 97.21 108.413 95.67C109.719 94.0833 110.863 91.61 111.843 88.25C113.196 89.4633 114.129 90.8167 114.643 92.31C113.289 96.7433 111.469 99.87 109.183 101.69C106.896 103.463 104.633 104.35 102.393 104.35ZM91.1228 75.79C88.1362 75.79 85.7562 76.9333 83.9828 79.22C82.2562 81.46 81.2295 84.82 80.9028 89.3C80.8562 89.72 80.8328 90.1167 80.8328 90.49C80.8328 92.7767 81.3695 94.5967 82.4428 95.95C83.5628 97.3033 84.9862 97.98 86.7128 97.98C89.6528 97.98 91.8695 95.9033 93.3628 91.75L95.0428 76.63C93.6895 76.07 92.3828 75.79 91.1228 75.79ZM130.242 79.5C130.242 77.4467 129.286 76.42 127.372 76.42C125.506 76.42 124.012 77.6333 122.892 80.06C127.932 84.0267 130.452 88.4833 130.452 93.43C130.452 97.0233 129.449 99.7533 127.442 101.62C125.436 103.487 122.916 104.42 119.882 104.42C116.849 104.42 114.632 103.487 113.232 101.62C111.832 99.7067 111.132 97.3033 111.132 94.41C111.132 93.5233 111.156 92.87 111.202 92.45L113.652 71.1C115.332 70.5867 117.036 70.33 118.762 70.33C121.609 70.33 123.032 71.38 123.032 73.48V73.62C124.899 71.4267 127.279 70.33 130.172 70.33C132.272 70.33 133.906 70.82 135.072 71.8C136.239 72.7333 136.822 73.9933 136.822 75.58C136.822 77.1667 136.216 78.4733 135.002 79.5C133.836 80.48 132.296 80.97 130.382 80.97C130.289 80.97 130.196 80.97 130.102 80.97C130.196 80.4567 130.242 79.9667 130.242 79.5ZM125.902 93.08C125.902 90.3733 124.502 87.6667 121.702 84.96C120.862 91.68 120.442 95.0633 120.442 95.11C120.442 97.07 121.236 98.05 122.822 98.05C124.876 98.05 125.902 96.3933 125.902 93.08ZM170.15 78.8C170.15 83.6533 167.257 87.3633 161.47 89.93C161.61 90.77 161.82 91.7733 162.1 92.94C162.94 96.3933 164.34 98.1667 166.3 98.26C166.44 98.26 166.58 98.26 166.72 98.26C170.453 98.26 173.23 94.97 175.05 88.39C176.03 89.2767 176.963 90.6067 177.85 92.38C177.197 94.9 176.263 97.0233 175.05 98.75C173.883 100.477 172.6 101.713 171.2 102.46C168.727 103.767 166.393 104.42 164.2 104.42C159.067 104.42 155.473 101.55 153.42 95.81C152.627 93.5233 152.09 91.19 151.81 88.81C154.47 88.1567 156.57 87.0833 158.11 85.59C159.65 84.05 160.42 82.4167 160.42 80.69C160.42 77.7033 158.927 76.21 155.94 76.21C154.307 76.21 152.907 76.84 151.74 78.1C150.573 79.3133 149.803 80.7833 149.43 82.51C149.15 84.89 148.683 88.6467 148.03 93.78C147.423 98.8667 147.027 102.273 146.84 104H137.53C140.89 75.3933 142.92 57.8233 143.62 51.29C144.6 50.9167 145.93 50.73 147.61 50.73C151.25 50.73 153.07 51.8033 153.07 53.95V54.37C152.137 62.8167 151.273 69.28 150.48 73.76C153.047 71.38 156.267 70.19 160.14 70.19C163.033 70.19 165.413 70.9367 167.28 72.43C169.193 73.9233 170.15 76.0467 170.15 78.8ZM186.187 88.32C189.08 87.7133 191.227 86.5467 192.627 84.82C194.073 83.0933 194.797 81.4367 194.797 79.85C194.797 78.2167 194.353 77.12 193.467 76.56C192.627 75.9533 191.693 75.65 190.667 75.65C188.473 75.65 186.537 76.8867 184.857 79.36C183.223 81.7867 182.407 84.7033 182.407 88.11C182.407 91.47 183.2 93.99 184.787 95.67C186.42 97.3033 188.427 98.12 190.807 98.12C194.307 98.12 197.667 96.9067 200.887 94.48C204.107 92.0533 206.72 88.88 208.727 84.96C209.753 85.94 210.687 87.1533 211.527 88.6C209.987 92.1 207.257 95.53 203.337 98.89C201.377 100.523 199.043 101.853 196.337 102.88C193.677 103.907 190.923 104.42 188.077 104.42C183.41 104.42 179.723 102.997 177.017 100.15C174.123 97.07 172.677 93.1267 172.677 88.32C172.677 83.5133 174.473 79.3133 178.067 75.72C181.707 72.1267 186.047 70.33 191.087 70.33C194.68 70.33 197.597 71.1233 199.837 72.71C202.077 74.25 203.22 76.35 203.267 79.01C203.267 82.6033 201.82 85.52 198.927 87.76C196.08 90 192.16 91.5633 187.167 92.45L186.187 88.32ZM221.594 55.28C221.594 55.56 220.964 60.5767 219.704 70.33H229.994V75.72H219.004L218.794 77.47C224.254 82.0433 226.984 87.0367 226.984 92.45C226.984 96.6967 225.887 99.7533 223.694 101.62C221.547 103.487 218.957 104.42 215.924 104.42C212.891 104.42 210.674 103.627 209.274 102.04C207.874 100.407 207.174 98.4467 207.174 96.16C207.174 95.6467 207.221 95.0867 207.314 94.48L209.484 75.86L209.204 75.72H203.534C203.487 75.2533 203.464 74.5067 203.464 73.48C203.464 72.4067 203.674 71.3567 204.094 70.33H210.114L212.354 51.29C213.334 50.9167 214.641 50.73 216.274 50.73C219.821 50.73 221.594 52.2467 221.594 55.28ZM222.294 92.38C222.294 89.16 220.894 85.9867 218.094 82.86C217.254 89.8133 216.834 93.8267 216.834 94.9C216.834 97 217.511 98.05 218.864 98.05C219.844 98.05 220.661 97.6067 221.314 96.72C221.967 95.7867 222.294 94.34 222.294 92.38Z" fill="#0A5226"/>
<path d="M225.459 21.9128C224.349 20.4273 222.864 19.5864 221.331 19.5748C219.798 19.5633 218.341 20.3819 217.28 21.851C216.891 22.3478 216.563 22.9268 216.308 23.5671C216.19 22.8431 216.003 22.1409 215.752 21.4789C215.025 19.5986 213.787 18.1683 212.312 17.5025C210.837 16.8367 209.244 16.99 207.885 17.9287C206.526 18.8674 205.511 20.5146 205.064 22.5079C204.617 24.5012 204.775 26.6774 205.502 28.5576C205.76 29.2149 206.081 29.8248 206.455 30.3715C205.914 30.2685 205.367 30.282 204.834 30.4113C204.088 30.5631 203.375 30.9147 202.737 31.446C202.098 31.9773 201.546 32.6779 201.112 33.5078C200.678 34.3378 200.371 35.2808 200.208 36.283C200.044 37.2852 200.029 38.327 200.161 39.3489C200.293 40.3708 200.572 41.3529 200.979 42.2389C201.387 43.1249 201.917 43.8976 202.538 44.5129C203.16 45.1282 203.86 45.574 204.6 45.8248C205.34 46.0756 206.105 46.1266 206.851 45.9748C207.39 45.8435 207.913 45.6226 208.409 45.3168C208.198 45.9833 208.046 46.684 207.958 47.4042C207.85 48.4221 207.893 49.4648 208.083 50.4716C208.273 51.4784 208.607 52.4293 209.065 53.2692C209.524 54.109 210.097 54.8211 210.753 55.3641C211.408 55.9071 212.133 56.2701 212.884 56.4322C214.407 56.7717 215.95 56.2818 217.177 55.069C218.405 53.8562 219.218 52.0184 219.44 49.9548C219.511 49.223 219.503 48.478 219.415 47.7434C219.82 48.2609 220.277 48.6963 220.771 49.0356C222.159 49.987 223.751 50.1636 225.202 49.5271C226.652 48.8905 227.843 47.4922 228.517 45.6358C228.853 44.723 229.05 43.7233 229.098 42.6947C229.146 41.6661 229.043 40.629 228.795 39.6436C228.547 38.6583 228.16 37.7443 227.655 36.9547C227.151 36.1651 226.539 35.5156 225.855 35.0439C225.365 34.7236 224.849 34.4834 224.32 34.3284C224.786 33.9671 225.217 33.5293 225.603 33.0246C226.131 32.3044 226.546 31.4449 226.825 30.4956C227.104 29.5462 227.24 28.5258 227.227 27.493C227.213 26.4602 227.05 25.4355 226.747 24.4778C226.443 23.5201 226.006 22.6484 225.459 21.9128Z" fill="#E53D7A"/>
</svg>
