<svg width="74" height="69" viewBox="0 0 74 69" fill="none" xmlns="http://www.w3.org/2000/svg">
<path d="M12.4424 60.5241H20.3089C23.8245 60.5241 27.3853 60.8931 30.8069 61.5962C36.9156 62.8512 43.201 62.9903 49.3593 62.0069C52.3806 61.5196 55.3462 60.7713 58.0333 59.4764C60.456 58.3034 63.425 56.657 65.4195 54.8087C67.4105 52.9639 69.485 49.9461 70.9539 47.5862C72.2209 45.5604 71.6083 43.0786 69.6103 41.5714C68.4876 40.7548 67.135 40.3148 65.7467 40.3148C64.3584 40.3148 63.0058 40.7548 61.8831 41.5714L55.5933 46.3226C53.1568 48.1674 50.494 49.8626 47.3231 50.3673C46.9402 50.4265 46.5399 50.4821 46.1222 50.5309M46.1222 50.5309C45.9947 50.5457 45.867 50.5596 45.7393 50.5726M46.1222 50.5309C46.6793 50.3802 47.1901 50.0931 47.6085 49.6955C48.133 49.2417 48.5613 48.6875 48.8681 48.0655C49.175 47.4435 49.3541 46.7664 49.395 46.0741C49.4359 45.3817 49.3377 44.6882 49.1061 44.0344C48.8746 43.3807 48.5145 42.7799 48.0471 42.2676C47.5935 41.764 47.0652 41.3332 46.4807 40.9901C36.745 35.1807 21.5933 39.6048 12.4424 46.0964M46.1222 50.5309C45.9964 50.5583 45.8681 50.5723 45.7393 50.5726M45.7393 50.5726C43.6401 50.7836 41.5253 50.7883 39.4252 50.5866" stroke="#0A5226" stroke-width="4" stroke-linecap="round"/>
<path d="M12.4423 43.51C12.4423 40.6264 10.1047 38.2888 7.22114 38.2888C4.33758 38.2888 2 40.6264 2 43.51V60.9137C2 63.7973 4.33758 66.1349 7.22114 66.1349C10.1047 66.1349 12.4423 63.7973 12.4423 60.9137V43.51Z" fill="#4DA36F" stroke="#0A5226" stroke-width="4"/>
<path d="M63.7765 18.2976C63.679 16.6538 62.952 15.1277 61.7551 14.0545C60.5583 12.9813 58.9893 12.4486 57.3927 12.5734C56.8288 12.5943 56.2701 12.706 55.7368 12.9045C56.0216 12.398 56.2404 11.8558 56.3875 11.2921C56.7956 9.68264 56.5694 7.98247 55.7586 6.56563C54.9477 5.1488 53.6188 4.13135 52.064 3.73712C50.5092 3.3429 48.856 3.60418 47.4681 4.46349C46.0801 5.3228 45.0711 6.70976 44.663 8.31924C44.5238 8.88488 44.4578 9.46584 44.4668 10.0469C44.0961 9.61038 43.6601 9.23793 43.1747 8.94322C42.5104 8.51342 41.7683 8.22413 40.9908 8.09187C40.2133 7.9596 39.4156 7.98695 38.6433 8.17235C37.871 8.35775 37.1391 8.69757 36.4895 9.17242C35.8399 9.64726 35.2854 10.2478 34.8574 10.9398C34.4295 11.6318 34.1366 12.4017 33.9955 13.2055C33.8543 14.0093 33.8677 14.8313 34.0348 15.6245C34.202 16.4177 34.5196 17.1667 34.9696 17.8286C35.4196 18.4905 35.9931 19.0523 36.6574 19.4821C37.1484 19.7798 37.6737 20.0138 38.2218 20.1792C37.7092 20.4235 37.2257 20.7295 36.7815 21.0908C36.1675 21.6136 35.6583 22.2553 35.2835 22.9785C34.9087 23.7017 34.6757 24.4922 34.5981 25.3039C34.5205 26.1156 34.5999 26.9325 34.8315 27.7071C35.0631 28.4817 35.4425 29.1987 35.9475 29.8163C36.9655 31.0747 38.4306 31.8599 40.0246 32.0017C41.6187 32.1434 43.213 31.6301 44.4614 30.5732C44.898 30.1931 45.2792 29.75 45.5929 29.258C45.641 29.8432 45.7727 30.4164 45.9838 30.9592C46.5777 32.4832 47.7348 33.6942 49.2038 34.3291C50.6728 34.9641 52.3351 34.9718 53.8297 34.3506C54.568 34.0481 55.2431 33.5986 55.8158 33.0279C56.3886 32.4573 56.8476 31.7769 57.1661 31.0262C57.4847 30.2756 57.6565 29.4697 57.6716 28.6552C57.6867 27.8408 57.5447 27.034 57.254 26.2818C57.0357 25.7525 56.7564 25.2531 56.4221 24.7941C56.9756 24.906 57.5413 24.9486 58.1069 24.9209C58.8958 24.8653 59.6689 24.6495 60.3815 24.286C61.0942 23.9225 61.7323 23.4184 62.2593 22.8028C62.7863 22.1872 63.1916 21.4722 63.452 20.699C63.7124 19.9258 63.8226 19.1097 63.7765 18.2976Z" fill="#E53D7A"/>
</svg>
