<svg width="52" height="54" viewBox="0 0 52 54" fill="none" xmlns="http://www.w3.org/2000/svg">
<path d="M51.0123 25.7448C50.8485 22.9827 49.627 20.4186 47.6159 18.6153C45.6048 16.812 42.9686 15.9169 40.2859 16.1266C39.3383 16.1617 38.3995 16.3494 37.5036 16.683C37.982 15.8319 38.3497 14.9208 38.5969 13.9737C39.2826 11.2694 38.9025 8.41266 37.5401 6.032C36.1777 3.65134 33.9447 1.94177 31.3323 1.27936C28.7198 0.61695 25.942 1.05597 23.6099 2.49985C21.2777 3.94372 19.5823 6.27417 18.8966 8.97852C18.6627 9.92895 18.5518 10.9051 18.5669 11.8814C17.9441 11.148 17.2114 10.5222 16.3959 10.027C15.2797 9.30481 14.0328 8.81872 12.7264 8.59648C11.42 8.37423 10.0796 8.42019 8.7819 8.73171C7.48418 9.04323 6.25448 9.61423 5.16301 10.4121C4.07155 11.21 3.13969 12.2191 2.42065 13.3818C1.70161 14.5445 1.20946 15.8381 0.97231 17.1887C0.73516 18.5393 0.75765 19.9204 1.0385 21.2533C1.31934 22.5861 1.85304 23.8445 2.60913 24.9567C3.36521 26.0689 4.32887 27.013 5.44509 27.7352C6.27001 28.2352 7.15275 28.6286 8.07371 28.9064C7.21233 29.3168 6.3999 29.831 5.65368 30.438C4.62192 31.3166 3.76632 32.3947 3.13654 33.61C2.50675 34.8252 2.11531 36.1533 1.98494 37.5172C1.85457 38.8811 1.98786 40.2537 2.37707 41.5553C2.76629 42.8568 3.40368 44.0615 4.25226 45.0993C5.96272 47.2136 8.42449 48.5331 11.103 48.7713C13.7814 49.0094 16.4603 48.1469 18.5578 46.3711C19.2914 45.7324 19.932 44.9878 20.4591 44.1611C20.5399 45.1444 20.7612 46.1077 21.1158 47.0197C22.1138 49.5804 24.0581 51.6151 26.5264 52.682C28.9947 53.7489 31.7878 53.7619 34.299 52.718C35.5396 52.2099 36.674 51.4545 37.6363 50.4956C38.5987 49.5368 39.3699 48.3936 39.9052 47.1323C40.4404 45.8711 40.7291 44.5169 40.7545 43.1484C40.7798 41.7799 40.5413 40.4243 40.0528 39.1603C39.686 38.271 39.2167 37.4319 38.655 36.6607C39.585 36.8487 40.5355 36.9203 41.4859 36.8737C42.8115 36.7803 44.1104 36.4177 45.3079 35.8069C46.5053 35.1961 47.5776 34.3491 48.463 33.3148C49.3485 32.2804 50.0295 31.079 50.4671 29.7799C50.9046 28.4807 51.0899 27.1093 51.0123 25.7448Z" fill="#E53D7A"/>
</svg>
