<svg width="61" height="61" viewBox="0 0 61 61" fill="none" xmlns="http://www.w3.org/2000/svg">
<path fill-rule="evenodd" clip-rule="evenodd" d="M30.4996 0C29.2581 0.000109125 28.0371 0.315627 26.9511 0.916943C25.865 1.51826 24.9496 2.38565 24.2906 3.43772L16.3979 15.9214L6.42671 17.1448C5.11765 17.2934 3.8739 17.7962 2.82934 18.5991C1.78477 19.4019 0.978954 20.4745 0.498613 21.7013C0.0182725 22.9281 -0.1184 24.2626 0.103306 25.5613C0.325013 26.86 0.896703 28.0736 1.75684 29.0716L1.76561 29.076L10.2415 38.7972L7.49661 52.3201L7.49223 52.3332C7.226 53.6945 7.35403 55.1035 7.86127 56.3945C8.3685 57.6855 9.23385 58.8049 10.3555 59.6208L10.3818 59.6384C11.511 60.4355 12.8415 60.8992 14.2215 60.9768C15.6015 61.0543 16.9755 60.7425 18.1869 60.0769L30.4996 53.3286L42.8078 60.0637C44.0188 60.73 45.3926 61.0425 46.7726 60.9658C48.1526 60.889 49.4833 60.426 50.6129 59.6296L50.6392 59.6121C51.7609 58.7961 52.6262 57.6768 53.1334 56.3858C53.6407 55.0948 53.7687 53.6857 53.5025 52.3244V52.3113L50.7532 38.7884L59.2291 29.0672L59.2379 29.0584C60.0999 28.0615 60.6732 26.848 60.8959 25.549C61.1187 24.25 60.9823 22.9148 60.5017 21.6876C60.021 20.4605 59.2142 19.3879 58.1685 18.5857C57.1228 17.7836 55.8778 17.2823 54.568 17.136L44.5969 15.9126L36.7085 3.44211V3.43772C36.0495 2.38565 35.1341 1.51826 34.048 0.916943C32.962 0.315627 31.741 0.000109125 30.4996 0Z" fill="#4DA36F"/>
<path fill-rule="evenodd" clip-rule="evenodd" d="M30.4995 18.3638C32.0123 18.3638 33.2401 19.5915 33.2401 21.1043V37.166H36.7699C37.4967 37.166 38.1938 37.4548 38.7077 37.9687C39.2217 38.4827 39.5104 39.1797 39.5104 39.9066C39.5104 40.6334 39.2217 41.3305 38.7077 41.8444C38.1938 42.3584 37.4967 42.6471 36.7699 42.6471H24.2292C23.5023 42.6471 22.8053 42.3584 22.2913 41.8444C21.7774 41.3305 21.4886 40.6334 21.4886 39.9066C21.4886 39.1797 21.7774 38.4827 22.2913 37.9687C22.8053 37.4548 23.5023 37.166 24.2292 37.166H27.759V28.2823C27.1363 28.4577 26.4786 28.5454 25.799 28.5454H24.2292C23.5023 28.5454 22.8053 28.2567 22.2913 27.7427C21.7774 27.2288 21.4886 26.5317 21.4886 25.8049C21.4886 25.078 21.7774 24.381 22.2913 23.867C22.8053 23.3531 23.5023 23.0643 24.2292 23.0643H25.799C26.882 23.0643 27.759 22.1874 27.759 21.1043C27.759 19.5871 28.9867 18.3638 30.4995 18.3638Z" fill="#0A5226"/>
</svg>
