<svg width="67" height="12" viewBox="0 0 67 12" fill="none" xmlns="http://www.w3.org/2000/svg">
<rect opacity="0.35" x="44.0324" y="0.757398" width="20.5465" height="10.2733" rx="2.56832" stroke="black" stroke-width="0.856105"/>
<path opacity="0.4" d="M65.8631 4.32446V7.74888C66.552 7.45886 67 6.78417 67 6.03667C67 5.28918 66.552 4.61449 65.8631 4.32446Z" fill="black"/>
<rect x="45.3166" y="2.0415" width="17.9782" height="7.70495" rx="1.14147" fill="black"/>
<path fill-rule="evenodd" clip-rule="evenodd" d="M30.0498 2.95532C32.1614 2.9554 34.1923 3.72378 35.7227 5.10164C35.838 5.20802 36.0222 5.20667 36.1357 5.09863L37.2373 4.04578C37.2947 3.99098 37.3268 3.91675 37.3263 3.83952C37.3258 3.76228 37.2929 3.68842 37.2347 3.63426C33.218 -0.0112243 26.881 -0.0112243 22.8643 3.63426C22.8061 3.68838 22.7731 3.76222 22.7725 3.83945C22.772 3.91669 22.804 3.99094 22.8614 4.04578L23.9633 5.09863C24.0768 5.20684 24.2611 5.20818 24.3763 5.10164C25.9069 3.72369 27.938 2.95531 30.0498 2.95532ZM30.0483 6.4721C31.2007 6.47203 32.312 6.89846 33.1662 7.66855C33.2817 7.77784 33.4637 7.77547 33.5764 7.66321L34.6693 6.56382C34.7269 6.50615 34.7588 6.42792 34.758 6.34663C34.7571 6.26534 34.7236 6.18778 34.6649 6.13129C32.0636 3.72232 28.0352 3.72232 25.4339 6.13129C25.3751 6.18778 25.3416 6.26538 25.3408 6.3467C25.3401 6.42801 25.3721 6.50624 25.4298 6.56382L26.5224 7.66321C26.6351 7.77547 26.8171 7.77784 26.9326 7.66855C27.7863 6.89897 28.8967 6.47257 30.0483 6.4721ZM32.1896 8.79998C32.1912 8.88777 32.1597 8.97241 32.1026 9.03391L30.2546 11.0795C30.2004 11.1396 30.1265 11.1734 30.0495 11.1734C29.9724 11.1734 29.8985 11.1396 29.8444 11.0795L27.996 9.03391C27.9389 8.97236 27.9075 8.8877 27.9092 8.79991C27.9109 8.71212 27.9455 8.62899 28.0049 8.57014C29.1852 7.47527 30.9137 7.47527 32.094 8.57014C32.1533 8.62903 32.1879 8.71219 32.1896 8.79998Z" fill="black"/>
<path fill-rule="evenodd" clip-rule="evenodd" d="M16.4372 1.86327C16.4372 1.33135 16.0284 0.900146 15.524 0.900146H14.6109C14.1065 0.900146 13.6977 1.33135 13.6977 1.86327V10.2103C13.6977 10.7422 14.1065 11.1734 14.6109 11.1734H15.524C16.0284 11.1734 16.4372 10.7422 16.4372 10.2103V1.86327ZM10.0735 2.95479H10.9867C11.491 2.95479 11.8999 3.39634 11.8999 3.94103V10.1872C11.8999 10.7319 11.491 11.1734 10.9867 11.1734H10.0735C9.56916 11.1734 9.16032 10.7319 9.16032 10.1872V3.94103C9.16032 3.39634 9.56916 2.95479 10.0735 2.95479ZM6.36372 5.18065H5.45054C4.94621 5.18065 4.53736 5.62782 4.53736 6.17944V10.1746C4.53736 10.7262 4.94621 11.1734 5.45054 11.1734H6.36372C6.86806 11.1734 7.2769 10.7262 7.2769 10.1746V6.17944C7.2769 5.62782 6.86806 5.18065 6.36372 5.18065ZM1.82636 7.23529H0.913179C0.408844 7.23529 0 7.67608 0 8.21981V10.1889C0 10.7326 0.408844 11.1734 0.913179 11.1734H1.82636C2.33069 11.1734 2.73954 10.7326 2.73954 10.1889V8.21981C2.73954 7.67608 2.33069 7.23529 1.82636 7.23529Z" fill="black"/>
</svg>
