<svg width="50" height="50" viewBox="0 0 50 50" fill="none" xmlns="http://www.w3.org/2000/svg">
<g clip-path="url(#clip0_273_50)">
<path fill-rule="evenodd" clip-rule="evenodd" d="M25 0C18.3696 0 12.0107 2.63392 7.32233 7.32233C2.63392 12.0107 0 18.3696 0 25C0 31.6304 2.63392 37.9893 7.32233 42.6777C12.0107 47.3661 18.3696 50 25 50C31.6304 50 37.9893 47.3661 42.6777 42.6777C47.3661 37.9893 50 31.6304 50 25C50 18.3696 47.3661 12.0107 42.6777 7.32233C37.9893 2.63392 31.6304 0 25 0Z" fill="#4DA36F"/>
<path fill-rule="evenodd" clip-rule="evenodd" d="M12.7143 16.7001C12.715 15.9769 12.9301 15.2702 13.3324 14.6693C13.7347 14.0683 14.3061 13.6002 14.9744 13.3239C15.6427 13.0476 16.3779 12.9757 17.0871 13.1172C17.7963 13.2588 18.4476 13.6074 18.9587 14.119C19.4698 14.6306 19.8177 15.2822 19.9586 15.9915C20.0994 16.7008 20.0268 17.436 19.7499 18.104C19.4729 18.7721 19.0042 19.343 18.4029 19.7447C17.8015 20.1464 17.0946 20.3608 16.3714 20.3608H16.3643C15.3953 20.358 14.4669 19.9711 13.7827 19.2848C13.0985 18.5986 12.7143 17.6691 12.7143 16.7001ZM33.6286 13.043C34.599 13.043 35.5297 13.4285 36.2158 14.1146C36.902 14.8008 37.2875 15.7315 37.2875 16.7019C37.2875 17.6723 36.902 18.603 36.2158 19.2891C35.5297 19.9753 34.599 20.3608 33.6286 20.3608H33.6179C32.6673 20.3298 31.7661 19.9299 31.1051 19.246C30.4442 18.5621 30.0753 17.6478 30.0767 16.6967C30.0781 15.7456 30.4496 14.8324 31.1126 14.1504C31.7755 13.4684 32.6779 13.0712 33.6286 13.043ZM28.75 35.1144C29.1434 35.1142 29.5324 35.0327 29.8929 34.8751C31.2196 34.3682 32.3709 33.4874 33.2072 32.3394C33.6072 31.7823 33.7214 31.4108 33.7357 31.3001C33.8115 30.7128 34.1175 30.1797 34.5863 29.8181C35.0551 29.4564 35.6485 29.2958 36.2357 29.3715C36.823 29.4473 37.3561 29.7533 37.7178 30.2221C38.0795 30.691 38.2401 31.2843 38.1643 31.8715C38.0179 33.0073 37.45 34.0787 36.8357 34.9394C35.4823 36.8081 33.6113 38.2397 31.4536 39.0573C30.4607 39.4287 29.2786 39.693 28.1464 39.5358C27.5715 39.4423 27.056 39.1279 26.7097 38.6595C26.3635 38.1911 26.2141 37.606 26.2933 37.029C26.3726 36.4519 26.6742 35.9287 27.1338 35.571C27.5935 35.2133 28.1748 35.0495 28.7536 35.1144H28.75Z" fill="#0A5226"/>
</g>
<defs>
<clipPath id="clip0_273_50">
<rect width="50" height="50" fill="white"/>
</clipPath>
</defs>
</svg>
