<svg width="45" height="42" viewBox="0 0 45 42" fill="none" xmlns="http://www.w3.org/2000/svg">
<path fill-rule="evenodd" clip-rule="evenodd" d="M22.5031 0C21.8696 0.000272128 21.2492 0.175513 20.7142 0.505316C20.1792 0.835118 19.7515 1.30591 19.4811 1.86286L14.3757 11.8804C14.3622 11.9041 14.3494 11.928 14.3371 11.9523C14.3124 11.9559 14.2877 11.9601 14.2632 11.9648L3.02049 13.5839C2.38288 13.6441 1.77649 13.881 1.27343 14.2666C0.770383 14.6522 0.391858 15.1702 0.182893 15.7589C-0.0260717 16.3477 -0.0566793 16.9824 0.0947119 17.5875C0.246103 18.1927 0.57312 18.7428 1.03686 19.1725L9.26715 26.8896L9.28644 26.9052C9.29807 26.9158 9.30681 26.9291 9.31186 26.9438C9.31691 26.9586 9.31812 26.9743 9.31538 26.9896V27.0021L7.35425 38.1542V38.1574C7.2466 38.762 7.31548 39.3839 7.55306 39.9524C7.79063 40.5209 8.1874 41.0133 8.69831 41.3736C9.20921 41.7339 9.8138 41.9478 10.4434 41.9909C11.073 42.034 11.7025 41.9046 12.2603 41.6174L22.3874 36.4133C22.4239 36.3978 22.4633 36.3898 22.5031 36.3898C22.543 36.3898 22.5824 36.3978 22.6189 36.4133L32.746 41.6143C33.3035 41.9034 33.9333 42.0343 34.5637 41.9923C35.194 41.9503 35.7996 41.737 36.3113 41.3766C36.823 41.0163 37.2203 40.5235 37.4579 39.9543C37.6955 39.3851 37.7639 38.7625 37.6552 38.1574L35.6941 26.999V26.9896C35.6877 26.9771 35.6909 26.9583 35.6941 26.9458C35.6989 26.9304 35.7078 26.9164 35.7198 26.9052L35.7391 26.8896L43.9662 19.1693C44.4289 18.7395 44.7551 18.1896 44.9059 17.5849C45.0567 16.9803 45.0258 16.3462 44.8169 15.7581C44.6081 15.17 44.23 14.6525 43.7275 14.2671C43.2251 13.8817 42.6195 13.6446 41.9826 13.5839L30.7431 11.9648C30.7185 11.9601 30.6939 11.9559 30.6691 11.9523C30.6569 11.928 30.6441 11.9041 30.6305 11.8804L25.5252 1.86286C25.2547 1.30591 24.8271 0.835118 24.2921 0.505316C23.757 0.175513 23.1366 0.000272128 22.5031 0Z" fill="#DBEDE2"/>
</svg>
