<svg width="43" height="41" viewBox="0 0 43 41" fill="none" xmlns="http://www.w3.org/2000/svg">
<path fill-rule="evenodd" clip-rule="evenodd" d="M21.503 0C20.8976 0.000265648 20.3048 0.171334 19.7936 0.493284C19.2823 0.815234 18.8737 1.27482 18.6152 1.81851L13.7368 11.5976C13.7239 11.6206 13.7116 11.644 13.6999 11.6677C13.6763 11.6712 13.6527 11.6753 13.6293 11.6799L2.88624 13.2604C2.27698 13.3192 1.69753 13.5505 1.21684 13.927C0.736144 14.3034 0.374442 14.809 0.174765 15.3837C-0.024913 15.9584 -0.0541602 16.578 0.0905025 17.1688C0.235165 17.7595 0.547648 18.2965 0.990773 18.716L8.85528 26.2493L8.87371 26.2646C8.88482 26.275 8.89317 26.2879 8.89799 26.3023C8.90282 26.3167 8.90398 26.3321 8.90136 26.347V26.3592L7.02739 37.2458V37.2489C6.92453 37.8391 6.99035 38.4462 7.21736 39.0012C7.44438 39.5561 7.82352 40.0368 8.31172 40.3885C8.79992 40.7403 9.37763 40.949 9.97927 40.9911C10.5809 41.0332 11.1824 40.9069 11.7154 40.6265L21.3924 35.5463C21.4273 35.5312 21.4649 35.5234 21.503 35.5234C21.5411 35.5234 21.5787 35.5312 21.6136 35.5463L31.2906 40.6235C31.8233 40.9057 32.4252 41.0335 33.0275 40.9925C33.6298 40.9515 34.2085 40.7432 34.6974 40.3915C35.1864 40.0397 35.566 39.5586 35.7931 39.003C36.0202 38.4474 36.0855 37.8396 35.9817 37.2489L34.1077 26.3561V26.347C34.1016 26.3348 34.1046 26.3165 34.1077 26.3043C34.1123 26.2892 34.1208 26.2755 34.1323 26.2646L34.1507 26.2493L42.0121 18.7129C42.4543 18.2933 42.7659 17.7565 42.91 17.1663C43.0541 16.576 43.0246 15.957 42.8251 15.3829C42.6255 14.8088 42.2642 14.3036 41.7841 13.9274C41.304 13.5512 40.7253 13.3197 40.1167 13.2604L29.3767 11.6799C29.3533 11.6753 29.3297 11.6712 29.3061 11.6677C29.2944 11.644 29.2821 11.6206 29.2692 11.5976L24.3907 1.81851C24.1323 1.27482 23.7237 0.815234 23.2124 0.493284C22.7012 0.171334 22.1083 0.000265648 21.503 0Z" fill="#B5DCC4"/>
</svg>
