<svg width="23" height="22" viewBox="0 0 28 26" fill="none" xmlns="http://www.w3.org/2000/svg"><path fill-rule="evenodd" clip-rule="evenodd" d="M14.002 0C13.6078 0.00016846 13.2217 0.108651 12.8888 0.312814C12.5559 0.516978 12.2898 0.808419 12.1216 1.1532L8.94489 7.35455C8.93649 7.36918 8.92849 7.38401 8.92089 7.39905C8.90549 7.40127 8.89015 7.40385 8.87488 7.40679L1.87941 8.40907C1.48268 8.44632 1.10537 8.59302 0.792359 8.83173C0.47935 9.07043 0.243823 9.39108 0.1138 9.75553C-0.0162224 10.12 -0.0352671 10.5129 0.0589319 10.8875C0.153131 11.2621 0.356608 11.6027 0.645155 11.8687L5.76623 16.6459L5.77823 16.6556C5.78547 16.6622 5.7909 16.6704 5.79404 16.6795C5.79719 16.6886 5.79794 16.6984 5.79623 16.7078V16.7156L4.57598 23.6193V23.6212C4.509 23.9955 4.55185 24.3805 4.69968 24.7324C4.84751 25.0844 5.09438 25.3892 5.41228 25.6122C5.73018 25.8353 6.10636 25.9677 6.49813 25.9944C6.88989 26.021 7.28154 25.9409 7.62862 25.7632L13.9299 22.5416C13.9527 22.532 13.9772 22.527 14.002 22.527C14.0267 22.527 14.0513 22.532 14.074 22.5416L20.3753 25.7612C20.7222 25.9402 21.1141 26.0213 21.5063 25.9952C21.8985 25.9692 22.2753 25.8372 22.5937 25.6141C22.9121 25.3911 23.1593 25.086 23.3071 24.7336C23.455 24.3813 23.4975 23.9958 23.4299 23.6212L22.2097 16.7136V16.7078C22.2057 16.7001 22.2077 16.6885 22.2097 16.6808C22.2127 16.6712 22.2182 16.6625 22.2257 16.6556L22.2377 16.6459L27.3567 11.8667C27.6447 11.6007 27.8476 11.2602 27.9414 10.8859C28.0353 10.5116 28.016 10.1191 27.8861 9.75502C27.7561 9.39095 27.5209 9.0706 27.2082 8.83201C26.8956 8.59343 26.5188 8.44663 26.1225 8.40907L19.129 7.40679C19.1138 7.40385 19.0984 7.40127 19.083 7.39905C19.0754 7.38401 19.0674 7.36918 19.059 7.35455L15.8823 1.1532C15.7141 0.808419 15.448 0.516978 15.1151 0.312814C14.7822 0.108651 14.3961 0.00016846 14.002 0Z" fill="#DBEDE2" /></svg>